#N canvas 1912 50 1920 1038 10;
#X obj 470 112 bng 15 250 50 0 empty empty empty 17 7 0 10 -260097
-1 -1;
#X obj 364 481 mtof;
#X obj 122 168 tgl 15 0 empty empty empty 17 7 0 10 -262144 -1 -1 1
1;
#X msg 121 190 \; pd dsp \$1;
#X obj 364 517 osc~ 440;
#X msg 494 119 stop;
#X obj 319 861 dac~ 1 2;
#X obj 517 490 mtof;
#X floatatom 517 427 5 0 0 0 - - -, f 5;
#X obj 517 530 osc~ 440;
#N canvas 2167 215 408 655 openFile 0;
#X obj 89 116 t b b a;
#X obj 86 226 textfile;
#X obj 85 254 list split 2;
#X obj 87 313 list split 1;
#X obj 154 174 bng 15 250 50 0 empty empty empty 17 7 0 10 -262144
-1 -1;
#X msg 87 173 rewind;
#X obj 120 280 list;
#N canvas 0 50 450 250 (subpatch) 0;
#X array temperature 40 float 2;
#X coords 0 -30 40 30 200 140 1 0 0;
#X restore 36 422 graph;
#X obj 88 25 inlet;
#X obj 87 377 tabwrite temperature;
#X msg 89 64 read dataTemp.txt;
#X connect 0 0 4 0;
#X connect 0 1 5 0;
#X connect 0 2 1 0;
#X connect 1 0 2 0;
#X connect 2 0 3 0;
#X connect 2 1 6 0;
#X connect 3 0 9 1;
#X connect 3 1 9 0;
#X connect 4 0 1 0;
#X connect 5 0 1 0;
#X connect 6 0 2 0;
#X connect 8 0 10 0;
#X connect 10 0 0 0;
#X coords 0 0 1 1 85 60 0;
#X restore 267 66 pd openFile;
#X obj 365 627 *~ 0.091;
#X obj 329 805 writesf~;
#X msg 430 762 stop;
#X obj 356 68 delay 1000;
#X msg 328 704 open audio.wav \, start;
#X obj 352 26 loadbang;
#X floatatom 672 372 5 0 0 0 - - -, f 5;
#X obj 517 235 metro 20;
#X obj 672 406 vsl 15 128 20 120 0 0 empty empty empty 0 -9 0 10 -262144
-1 -1 0 1;
#X obj 517 459 + \$1;
#X obj 668 330 tabread temperature;
#X msg 670 557 80 \$1;
#X obj 623 653 +;
#X obj 650 234 metro 3000;
#X obj 364 325 random 350;
#X msg 372 294 seed 30;
#X obj 369 452 + \$1;
#X obj 673 261 f 0;
#X obj 711 261 + 1;
#X floatatom 670 302 5 0 0 0 - - -, f 5;
#X obj 446 69 delay 120000;
#X msg 798 220 0;
#X obj 364 225 metro \$1;
#X obj 517 335 random 6;
#X connect 0 0 18 0;
#X connect 0 0 33 0;
#X connect 1 0 4 0;
#X connect 2 0 3 0;
#X connect 4 0 11 0;
#X connect 5 0 18 0;
#X connect 5 0 33 0;
#X connect 7 0 9 0;
#X connect 8 0 20 0;
#X connect 9 0 11 0;
#X connect 11 0 12 0;
#X connect 13 0 12 0;
#X connect 14 0 0 0;
#X connect 14 0 2 0;
#X connect 14 0 24 0;
#X connect 14 0 15 0;
#X connect 15 0 12 0;
#X connect 16 0 14 0;
#X connect 16 0 10 0;
#X connect 16 0 31 0;
#X connect 17 0 19 0;
#X connect 18 0 34 0;
#X connect 19 0 22 0;
#X connect 20 0 7 0;
#X connect 21 0 17 0;
#X connect 22 0 23 0;
#X connect 23 0 20 1;
#X connect 23 0 27 1;
#X connect 23 0 33 1;
#X connect 24 0 28 0;
#X connect 25 0 27 0;
#X connect 26 0 25 0;
#X connect 27 0 1 0;
#X connect 28 0 29 0;
#X connect 28 0 30 0;
#X connect 29 0 28 1;
#X connect 30 0 21 0;
#X connect 31 0 5 0;
#X connect 31 0 2 0;
#X connect 31 0 13 0;
#X connect 32 0 28 0;
#X connect 33 0 25 0;
#X connect 34 0 8 0;
